<svg width="40" height="40" viewBox="0 0 40 40" fill="none" xmlns="http://www.w3.org/2000/svg">
<path d="M18.2677 14.2641C18.0963 14.4333 18 14.6627 18 14.902C18 15.1412 18.0963 15.3706 18.2677 15.5398L22.7932 20.0054L18.2677 24.4711C18.1011 24.6413 18.009 24.8691 18.0111 25.1057C18.0132 25.3422 18.1093 25.5685 18.2788 25.7358C18.4483 25.903 18.6776 25.9979 18.9173 26C19.1571 26.002 19.388 25.9111 19.5604 25.7468L24.7323 20.6433C24.9037 20.4741 25 20.2447 25 20.0054C25 19.7662 24.9037 19.5368 24.7323 19.3676L19.5604 14.2641C19.389 14.095 19.1565 14 18.9141 14C18.6716 14 18.4391 14.095 18.2677 14.2641Z" fill="#003A65"/>
</svg>
